<?xml version="1.0" standalone="no"?>
<!DOCTYPE svg PUBLIC "-//W3C//DTD SVG 20010904//EN"
 "http://www.w3.org/TR/2001/REC-SVG-20010904/DTD/svg10.dtd">
<svg version="1.0" xmlns="http://www.w3.org/2000/svg"
 width="422.000000pt" height="422.000000pt" viewBox="0 0 422.000000 422.000000"
 preserveAspectRatio="xMidYMid meet">
<metadata>
Created by potrace 1.11, written by Peter Selinger 2001-2013
</metadata>
<g transform="translate(0.000000,422.000000) scale(0.100000,-0.100000)"
fill="#000000" stroke="none">
<path d="M1217 3534 c-1 -1 -36 -4 -78 -8 -374 -30 -740 -287 -918 -643 -40
-80 -83 -211 -95 -288 -4 -22 -9 -55 -12 -74 -9 -45 -9 -1769 -1 -1778 4 -3
149 -7 323 -7 239 -1 318 2 321 11 3 7 6 401 7 875 l2 863 24 60 c78 201 243
323 445 331 105 4 165 -9 250 -51 147 -72 249 -209 272 -365 3 -25 6 -422 6
-882 1 -752 2 -838 16 -839 22 -1 601 -1 626 0 20 1 20 6 20 834 0 457 3 858
7 891 24 177 186 351 371 399 71 19 211 15 281 -7 159 -51 303 -211 335 -374
7 -35 11 -346 11 -897 0 -669 3 -845 13 -846 80 -5 630 -2 634 4 6 11 6 1686
-1 1752 -28 284 -144 518 -361 726 -214 205 -475 309 -775 310 -133 1 -202 -7
-317 -36 -164 -42 -335 -135 -466 -255 l-62 -57 -65 59 c-198 181 -450 282
-728 291 -46 1 -84 2 -85 1z"/>
<path d="M4213 3230 c0 -30 2 -43 4 -27 2 15 2 39 0 55 -2 15 -4 2 -4 -28z"/>
<path d="M4215 1835 c0 -605 1 -851 2 -547 2 305 2 800 0 1100 -1 301 -2 52
-2 -553z"/>
</g>
</svg>
